<?xml version="1.0" standalone="no"?><!DOCTYPE svg PUBLIC "-//W3C//DTD SVG 1.1//EN" "http://www.w3.org/Graphics/SVG/1.1/DTD/svg11.dtd"><svg t="1639576933430" class="icon" viewBox="0 0 1024 1024" version="1.1" xmlns="http://www.w3.org/2000/svg" p-id="3062" xmlns:xlink="http://www.w3.org/1999/xlink" width="200" height="200"><defs><style type="text/css"></style></defs><path d="M362.666667 192m-64 0a64 64 0 1 0 128 0 64 64 0 1 0-128 0Z" p-id="3063" fill="#8a8a8a"></path><path d="M661.333333 192m-64 0a64 64 0 1 0 128 0 64 64 0 1 0-128 0Z" p-id="3064" fill="#8a8a8a"></path><path d="M362.666667 512m-64 0a64 64 0 1 0 128 0 64 64 0 1 0-128 0Z" p-id="3065" fill="#8a8a8a"></path><path d="M661.333333 512m-64 0a64 64 0 1 0 128 0 64 64 0 1 0-128 0Z" p-id="3066" fill="#8a8a8a"></path><path d="M362.666667 832m-64 0a64 64 0 1 0 128 0 64 64 0 1 0-128 0Z" p-id="3067" fill="#8a8a8a"></path><path d="M661.333333 832m-64 0a64 64 0 1 0 128 0 64 64 0 1 0-128 0Z" p-id="3068" fill="#8a8a8a"></path></svg>